<svg width="100%" height="100%" viewBox="0 0 464 467" preserveAspectRatio="none" fill="none" xmlns="http://www.w3.org/2000/svg" shape-rendering="crispEdges">
<path fill-rule="evenodd" clip-rule="evenodd" d="M464 39C464 17.4609 446.539 0 425 0H39C17.4609 0 0 17.4609 0 39V428C0 449.539 17.4609 467 39 467H425C446.539 467 464 449.539 464 428V39ZM450.867 49.6136C450.867 28.0745 433.406 10.6136 411.867 10.6136H53.5906C32.0515 10.6136 14.5906 28.0746 14.5906 49.6137V417.386C14.5906 438.925 32.0516 456.386 53.5907 456.386H411.867C433.406 456.386 450.867 438.925 450.867 417.386V49.6136Z" fill="#D9D9D9"/>
<path fill-rule="evenodd" clip-rule="evenodd" d="M464 39C464 17.4609 446.539 0 425 0H39C17.4609 0 0 17.4609 0 39V428C0 449.539 17.4609 467 39 467H425C446.539 467 464 449.539 464 428V39ZM450.867 49.6136C450.867 28.0745 433.406 10.6136 411.867 10.6136H53.5906C32.0515 10.6136 14.5906 28.0746 14.5906 49.6137V417.386C14.5906 438.925 32.0516 456.386 53.5907 456.386H411.867C433.406 456.386 450.867 438.925 450.867 417.386V49.6136Z" fill="url(#paint0_radial_263_46)"/>
<defs>
<radialGradient id="paint0_radial_263_46" cx="0" cy="0" r="1" gradientUnits="userSpaceOnUse" gradientTransform="translate(211.675 374.916) rotate(-1.80945) scale(312.464 1875.4)">
<stop stop-color="#BFA75D"/>
<stop offset="0.9999"/>
<stop offset="1"/>
</radialGradient>
</defs>
</svg>
